<svg xmlns="http://www.w3.org/2000/svg" viewBox="0 0 512 512">
  <rect width="512" height="512" rx="96" fill="#15803d"/>
  <circle cx="256" cy="256" r="226" fill="#fffbea"/>
  <!-- Vitthal -->
  <circle cx="200" cy="160" r="54" fill="none" stroke="#f59e0b" stroke-width="3" opacity=".6"/>
  <rect x="146" y="402" width="108" height="22" rx="4" fill="#92400e"/>
  <rect x="178" y="332" width="18" height="72" fill="#1e3a8a"/>
  <rect x="206" y="332" width="18" height="72" fill="#1e3a8a"/>
  <path d="M170 270 L230 270 L242 348 L158 348 Z" fill="#facc15"/>
  <path d="M172 192 Q200 176 228 192 L230 272 L170 272 Z" fill="#1e3a8a"/>
  <path d="M176 200 Q138 228 168 264" fill="none" stroke="#1e3a8a" stroke-width="14" stroke-linecap="round"/>
  <path d="M224 200 Q262 228 232 264" fill="none" stroke="#1e3a8a" stroke-width="14" stroke-linecap="round"/>
  <path d="M182 194 Q200 224 218 194" fill="none" stroke="#facc15" stroke-width="5"/>
  <circle cx="200" cy="162" r="26" fill="#1e3a8a"/>
  <path d="M174 148 L200 80 L226 148 Z" fill="#facc15"/>
  <rect x="174" y="142" width="52" height="10" rx="3" fill="#f59e0b"/>
  <circle cx="200" cy="74" r="6" fill="#facc15"/>
  <path d="M200 152 v12" stroke="#fff" stroke-width="3" stroke-linecap="round"/>
  <path d="M188 168 h8 M204 168 h8" stroke="#fff" stroke-width="3" stroke-linecap="round"/>
  <!-- Cow -->
  <path d="M443 330 q24 14 12 56" fill="none" stroke="#6b7280" stroke-width="5" stroke-linecap="round"/>
  <g stroke="#374151" stroke-width="4">
    <rect x="326" y="362" width="14" height="46" rx="4" fill="#fff"/>
    <rect x="356" y="362" width="14" height="46" rx="4" fill="#fff"/>
    <rect x="398" y="362" width="14" height="46" rx="4" fill="#fff"/>
    <rect x="422" y="362" width="14" height="46" rx="4" fill="#fff"/>
    <ellipse cx="378" cy="332" rx="68" ry="42" fill="#fff"/>
  </g>
  <ellipse cx="356" cy="322" rx="16" ry="12" fill="#374151"/>
  <ellipse cx="402" cy="346" rx="14" ry="10" fill="#374151"/>
  <path d="M300 280 q-12 -16 -4 -26 M334 278 q12 -16 4 -26" fill="none" stroke="#f59e0b" stroke-width="6" stroke-linecap="round"/>
  <ellipse cx="292" cy="290" rx="9" ry="6" fill="#fff" stroke="#374151" stroke-width="3"/>
  <ellipse cx="344" cy="290" rx="9" ry="6" fill="#fff" stroke="#374151" stroke-width="3"/>
  <ellipse cx="318" cy="304" rx="30" ry="26" fill="#fff" stroke="#374151" stroke-width="4"/>
  <ellipse cx="318" cy="318" rx="17" ry="11" fill="#fbcfe8"/>
  <circle cx="311" cy="318" r="2.5" fill="#9d174d"/><circle cx="325" cy="318" r="2.5" fill="#9d174d"/>
  <circle cx="306" cy="298" r="3.5" fill="#111827"/><circle cx="330" cy="298" r="3.5" fill="#111827"/>
</svg>
